<?xml version="1.0" encoding="utf-8"?>
<!-- Generator: Adobe Illustrator 21.1.0, SVG Export Plug-In . SVG Version: 6.00 Build 0)  -->
<svg version="1.1" id="Layer_1" xmlns="http://www.w3.org/2000/svg" xmlns:xlink="http://www.w3.org/1999/xlink" x="0px" y="0px"
	 width="326px" height="52px" viewBox="0 0 326 52" style="enable-background:new 0 0 326 52;" xml:space="preserve">
<g id="logo_x5F_hero_x5F_large">
	<g>
		<g>
			<g>
				<path d="M195.87,10.95c1.46-1.83,2.45-4.28,2.19-6.79c-2.14,0.11-4.75,1.41-6.26,3.24c-1.36,1.57-2.56,4.12-2.24,6.53
					C191.96,14.13,194.36,12.72,195.87,10.95"/>
				<path d="M198.04,14.39c-3.49-0.21-6.45,1.98-8.12,1.98s-4.22-1.87-6.97-1.82c-3.59,0.05-6.92,2.08-8.74,5.31
					c-3.75,6.46-0.99,16.04,2.65,21.3c1.77,2.6,3.9,5.47,6.71,5.36c2.65-0.1,3.7-1.72,6.92-1.72s4.16,1.72,6.97,1.67
					c2.91-0.05,4.74-2.6,6.51-5.21c2.03-2.97,2.86-5.83,2.91-5.99c-0.05-0.05-5.62-2.19-5.67-8.59c-0.05-5.36,4.37-7.91,4.58-8.07
					C203.29,14.91,199.39,14.5,198.04,14.39"/>
			</g>
			<g>
				<path d="M211.97,26.65c0-12.37,6.98-20.17,17.89-20.17c8.85,0,15.54,5.44,16.57,13.59h-6.01c-1.08-5.01-5.25-8.28-10.56-8.28
					c-7.09,0-11.69,5.82-11.69,14.86c0,9.12,4.55,14.89,11.72,14.89c5.44,0,9.31-2.79,10.53-7.5h6.04
					c-1.49,8.07-7.61,12.8-16.59,12.8C218.9,46.84,211.97,39.1,211.97,26.65z"/>
				<path d="M249.25,38.1c0-4.98,3.82-8.04,10.58-8.42l7.8-0.46v-2.19c0-3.17-2.14-5.06-5.71-5.06c-3.38,0-5.5,1.62-6.01,4.17h-5.52
					c0.32-5.14,4.71-8.93,11.75-8.93c6.9,0,11.31,3.65,11.31,9.37V46.2h-5.6v-4.68h-0.14c-1.65,3.17-5.25,5.17-8.99,5.17
					C253.15,46.68,249.25,43.22,249.25,38.1z M267.63,35.53v-2.25l-7.01,0.43c-3.49,0.24-5.47,1.79-5.47,4.22
					c0,2.49,2.06,4.11,5.2,4.11C264.44,42.05,267.63,39.24,267.63,35.53z"/>
				<path d="M279.11,17.72h5.58v4.85h0.14c0.95-3.33,3.49-5.31,6.85-5.31c0.84,0,1.57,0.14,2,0.22v5.44
					c-0.46-0.19-1.49-0.32-2.63-0.32c-3.76,0-6.09,2.52-6.09,6.55V46.2h-5.85V17.72z"/>
				<path d="M294.76,31.96c0-8.99,4.76-14.7,11.91-14.7c4.09,0,7.34,2.06,8.93,5.2h0.11V7.13h5.87v39.06h-5.68v-4.85h-0.11
					c-1.68,3.25-4.93,5.33-9.07,5.33C299.52,46.68,294.76,40.94,294.76,31.96z M300.74,31.96c0,6.01,2.9,9.77,7.53,9.77
					c4.49,0,7.5-3.82,7.5-9.77c0-5.9-3-9.77-7.5-9.77C303.64,22.18,300.74,25.97,300.74,31.96z"/>
			</g>
		</g>
		<g style="enable-background:new    ;">
			<path d="M16.84,46.45V12.27H4.72V6.99h30.35v5.28H22.98v34.18H16.84z"/>
			<path d="M39.57,6.99h5.87v15.59h0.14c1.73-3.45,4.72-5.22,9.13-5.22c6.33,0,10.12,4.21,10.12,10.72v18.38h-5.95v-17.2
				c0-4.24-2.14-6.81-6.31-6.81c-4.39,0-7.07,3.01-7.07,7.57v16.43h-5.92V6.99H39.57z"/>
			<path d="M70.25,10.11c0-1.91,1.54-3.39,3.43-3.39c1.92,0,3.45,1.48,3.45,3.39c0,1.86-1.54,3.36-3.45,3.36
				C71.79,13.47,70.25,11.97,70.25,10.11z M70.72,17.68h5.92v28.77h-5.92V17.68z"/>
			<path d="M93.47,17.35c6.39,0,10.97,3.53,11.1,8.61H99c-0.25-2.54-2.41-4.1-5.7-4.1c-3.21,0-5.35,1.48-5.35,3.72
				c0,1.72,1.43,2.87,4.41,3.61l4.85,1.12c5.81,1.39,8.01,3.53,8.01,7.74c0,5.2-4.94,8.75-11.98,8.75c-6.8,0-11.38-3.47-11.82-8.72
				h5.87c0.41,2.76,2.63,4.24,6.22,4.24c3.54,0,5.76-1.45,5.76-3.75c0-1.78-1.1-2.73-4.11-3.5L90,33.81
				c-5.21-1.26-7.84-3.91-7.84-7.9C82.18,20.83,86.76,17.35,93.47,17.35z"/>
			<path d="M120.95,10.11c0-1.91,1.54-3.39,3.43-3.39c1.92,0,3.45,1.48,3.45,3.39c0,1.86-1.54,3.36-3.45,3.36
				C122.48,13.47,120.95,11.97,120.95,10.11z M121.42,17.68h5.92v28.77h-5.92V17.68z"/>
			<path d="M144.17,17.35c6.39,0,10.97,3.53,11.1,8.61h-5.57c-0.25-2.54-2.41-4.1-5.7-4.1c-3.21,0-5.35,1.48-5.35,3.72
				c0,1.72,1.43,2.87,4.41,3.61l4.85,1.12c5.81,1.39,8.01,3.53,8.01,7.74c0,5.2-4.94,8.75-11.98,8.75c-6.8,0-11.38-3.47-11.82-8.72
				H138c0.41,2.76,2.63,4.24,6.22,4.24c3.54,0,5.76-1.45,5.76-3.75c0-1.78-1.1-2.73-4.11-3.5l-5.16-1.26
				c-5.21-1.26-7.84-3.91-7.84-7.9C132.88,20.83,137.46,17.35,144.17,17.35z"/>
		</g>
	</g>
</g>
</svg>
